<mxfile host="app.diagrams.net" agent="Mozilla/5.0 (Windows NT 10.0; Win64; x64) AppleWebKit/537.36 (KHTML, like Gecko) Chrome/131.0.0.0 Safari/537.36" version="24.9.1" pages="2">
  <diagram name="Use Case" id="oSxPidYM58SFP03IWWnt">
    <mxGraphModel dx="1668" dy="924" grid="1" gridSize="10" guides="1" tooltips="1" connect="1" arrows="1" fold="1" page="1" pageScale="1" pageWidth="1100" pageHeight="1100" math="0" shadow="0">
      <root>
        <mxCell id="0" />
        <mxCell id="1" parent="0" />
        <mxCell id="1SMl2eZP3p75lDqBcPJp-20" style="edgeStyle=orthogonalEdgeStyle;rounded=0;orthogonalLoop=1;jettySize=auto;html=1;entryX=0;entryY=0.5;entryDx=0;entryDy=0;curved=1;" edge="1" parent="1" source="1SMl2eZP3p75lDqBcPJp-1" target="1SMl2eZP3p75lDqBcPJp-17">
          <mxGeometry relative="1" as="geometry" />
        </mxCell>
        <mxCell id="1SMl2eZP3p75lDqBcPJp-21" style="edgeStyle=orthogonalEdgeStyle;rounded=0;orthogonalLoop=1;jettySize=auto;html=1;entryX=0;entryY=0.5;entryDx=0;entryDy=0;curved=1;" edge="1" parent="1" source="1SMl2eZP3p75lDqBcPJp-1" target="1SMl2eZP3p75lDqBcPJp-18">
          <mxGeometry relative="1" as="geometry" />
        </mxCell>
        <mxCell id="1SMl2eZP3p75lDqBcPJp-22" style="edgeStyle=orthogonalEdgeStyle;rounded=0;orthogonalLoop=1;jettySize=auto;html=1;curved=1;entryX=0;entryY=0.5;entryDx=0;entryDy=0;" edge="1" parent="1" source="1SMl2eZP3p75lDqBcPJp-1" target="1SMl2eZP3p75lDqBcPJp-16">
          <mxGeometry relative="1" as="geometry" />
        </mxCell>
        <mxCell id="1SMl2eZP3p75lDqBcPJp-24" style="edgeStyle=orthogonalEdgeStyle;rounded=0;orthogonalLoop=1;jettySize=auto;html=1;entryX=0;entryY=0.5;entryDx=0;entryDy=0;curved=1;" edge="1" parent="1" source="1SMl2eZP3p75lDqBcPJp-1" target="1SMl2eZP3p75lDqBcPJp-19">
          <mxGeometry relative="1" as="geometry" />
        </mxCell>
        <mxCell id="1SMl2eZP3p75lDqBcPJp-1" value="Читатель" style="shape=umlActor;verticalLabelPosition=bottom;verticalAlign=top;html=1;" vertex="1" parent="1">
          <mxGeometry x="550" y="410" width="30" height="60" as="geometry" />
        </mxCell>
        <mxCell id="1SMl2eZP3p75lDqBcPJp-8" style="edgeStyle=orthogonalEdgeStyle;rounded=0;orthogonalLoop=1;jettySize=auto;html=1;curved=1;endArrow=block;endFill=0;exitX=0.5;exitY=0;exitDx=0;exitDy=0;exitPerimeter=0;" edge="1" parent="1" source="1SMl2eZP3p75lDqBcPJp-2">
          <mxGeometry relative="1" as="geometry">
            <mxPoint x="565" y="490" as="targetPoint" />
          </mxGeometry>
        </mxCell>
        <mxCell id="1SMl2eZP3p75lDqBcPJp-37" style="edgeStyle=orthogonalEdgeStyle;rounded=0;orthogonalLoop=1;jettySize=auto;html=1;entryX=0;entryY=0.5;entryDx=0;entryDy=0;curved=1;" edge="1" parent="1" source="1SMl2eZP3p75lDqBcPJp-2" target="1SMl2eZP3p75lDqBcPJp-25">
          <mxGeometry relative="1" as="geometry" />
        </mxCell>
        <mxCell id="1SMl2eZP3p75lDqBcPJp-38" style="edgeStyle=orthogonalEdgeStyle;rounded=0;orthogonalLoop=1;jettySize=auto;html=1;curved=1;" edge="1" parent="1" source="1SMl2eZP3p75lDqBcPJp-2" target="1SMl2eZP3p75lDqBcPJp-26">
          <mxGeometry relative="1" as="geometry" />
        </mxCell>
        <mxCell id="1SMl2eZP3p75lDqBcPJp-39" style="edgeStyle=orthogonalEdgeStyle;rounded=0;orthogonalLoop=1;jettySize=auto;html=1;entryX=1;entryY=0.5;entryDx=0;entryDy=0;curved=1;exitX=0;exitY=0.3333333333333333;exitDx=0;exitDy=0;exitPerimeter=0;" edge="1" parent="1" source="1SMl2eZP3p75lDqBcPJp-2" target="1SMl2eZP3p75lDqBcPJp-27">
          <mxGeometry relative="1" as="geometry" />
        </mxCell>
        <mxCell id="1SMl2eZP3p75lDqBcPJp-2" value="Администратор" style="shape=umlActor;verticalLabelPosition=bottom;verticalAlign=top;html=1;" vertex="1" parent="1">
          <mxGeometry x="550" y="675" width="30" height="60" as="geometry" />
        </mxCell>
        <mxCell id="1SMl2eZP3p75lDqBcPJp-45" style="edgeStyle=orthogonalEdgeStyle;rounded=0;orthogonalLoop=1;jettySize=auto;html=1;entryX=0.5;entryY=1;entryDx=0;entryDy=0;curved=1;" edge="1" parent="1" source="1SMl2eZP3p75lDqBcPJp-3" target="1SMl2eZP3p75lDqBcPJp-44">
          <mxGeometry relative="1" as="geometry" />
        </mxCell>
        <mxCell id="1SMl2eZP3p75lDqBcPJp-50" style="edgeStyle=orthogonalEdgeStyle;rounded=0;orthogonalLoop=1;jettySize=auto;html=1;entryX=1;entryY=0.5;entryDx=0;entryDy=0;curved=1;" edge="1" parent="1" source="1SMl2eZP3p75lDqBcPJp-3" target="1SMl2eZP3p75lDqBcPJp-48">
          <mxGeometry relative="1" as="geometry" />
        </mxCell>
        <mxCell id="1SMl2eZP3p75lDqBcPJp-3" value="Библиотекарь" style="shape=umlActor;verticalLabelPosition=bottom;verticalAlign=top;html=1;" vertex="1" parent="1">
          <mxGeometry x="370" y="400" width="30" height="60" as="geometry" />
        </mxCell>
        <mxCell id="1SMl2eZP3p75lDqBcPJp-11" style="edgeStyle=orthogonalEdgeStyle;rounded=0;orthogonalLoop=1;jettySize=auto;html=1;entryX=0;entryY=0.3333333333333333;entryDx=0;entryDy=0;entryPerimeter=0;curved=1;endArrow=block;endFill=0;" edge="1" parent="1" source="1SMl2eZP3p75lDqBcPJp-3" target="1SMl2eZP3p75lDqBcPJp-1">
          <mxGeometry relative="1" as="geometry" />
        </mxCell>
        <mxCell id="1SMl2eZP3p75lDqBcPJp-12" value="Бронирование книги&amp;nbsp;" style="ellipse;whiteSpace=wrap;html=1;" vertex="1" parent="1">
          <mxGeometry x="495" y="250" width="140" height="70" as="geometry" />
        </mxCell>
        <mxCell id="1SMl2eZP3p75lDqBcPJp-14" style="edgeStyle=orthogonalEdgeStyle;rounded=0;orthogonalLoop=1;jettySize=auto;html=1;curved=1;" edge="1" parent="1" source="1SMl2eZP3p75lDqBcPJp-13" target="1SMl2eZP3p75lDqBcPJp-12">
          <mxGeometry relative="1" as="geometry" />
        </mxCell>
        <mxCell id="1SMl2eZP3p75lDqBcPJp-15" value="&amp;lt;&amp;lt;extend&amp;gt;&amp;gt;" style="edgeLabel;html=1;align=center;verticalAlign=middle;resizable=0;points=[];" vertex="1" connectable="0" parent="1SMl2eZP3p75lDqBcPJp-14">
          <mxGeometry x="-0.2703" y="3" relative="1" as="geometry">
            <mxPoint x="-7" y="-3" as="offset" />
          </mxGeometry>
        </mxCell>
        <mxCell id="1SMl2eZP3p75lDqBcPJp-13" value="Отмена бронирования" style="ellipse;whiteSpace=wrap;html=1;" vertex="1" parent="1">
          <mxGeometry x="730" y="250" width="140" height="70" as="geometry" />
        </mxCell>
        <mxCell id="1SMl2eZP3p75lDqBcPJp-16" value="Просмотр истории&lt;div&gt;бронирований&lt;/div&gt;" style="ellipse;whiteSpace=wrap;html=1;" vertex="1" parent="1">
          <mxGeometry x="730" y="330" width="140" height="70" as="geometry" />
        </mxCell>
        <mxCell id="1SMl2eZP3p75lDqBcPJp-17" value="Регистрация&lt;div&gt;пользователя&lt;/div&gt;" style="ellipse;whiteSpace=wrap;html=1;" vertex="1" parent="1">
          <mxGeometry x="730" y="410" width="140" height="70" as="geometry" />
        </mxCell>
        <mxCell id="1SMl2eZP3p75lDqBcPJp-18" value="Просмотр&lt;div&gt;книг&lt;/div&gt;" style="ellipse;whiteSpace=wrap;html=1;" vertex="1" parent="1">
          <mxGeometry x="730" y="490" width="140" height="70" as="geometry" />
        </mxCell>
        <mxCell id="1SMl2eZP3p75lDqBcPJp-19" value="Поиск книг" style="ellipse;whiteSpace=wrap;html=1;" vertex="1" parent="1">
          <mxGeometry x="730" y="570" width="140" height="70" as="geometry" />
        </mxCell>
        <mxCell id="1SMl2eZP3p75lDqBcPJp-23" style="edgeStyle=orthogonalEdgeStyle;rounded=0;orthogonalLoop=1;jettySize=auto;html=1;entryX=0.5;entryY=1;entryDx=0;entryDy=0;curved=1;" edge="1" parent="1" source="1SMl2eZP3p75lDqBcPJp-1" target="1SMl2eZP3p75lDqBcPJp-12">
          <mxGeometry relative="1" as="geometry" />
        </mxCell>
        <mxCell id="1SMl2eZP3p75lDqBcPJp-31" style="edgeStyle=orthogonalEdgeStyle;rounded=0;orthogonalLoop=1;jettySize=auto;html=1;entryX=0;entryY=0.5;entryDx=0;entryDy=0;curved=1;exitX=0.97;exitY=0.336;exitDx=0;exitDy=0;exitPerimeter=0;" edge="1" parent="1" source="1SMl2eZP3p75lDqBcPJp-25" target="1SMl2eZP3p75lDqBcPJp-28">
          <mxGeometry relative="1" as="geometry" />
        </mxCell>
        <mxCell id="1SMl2eZP3p75lDqBcPJp-32" value="&amp;lt;&amp;lt;include&amp;gt;&amp;gt;" style="edgeLabel;html=1;align=center;verticalAlign=middle;resizable=0;points=[];" vertex="1" connectable="0" parent="1SMl2eZP3p75lDqBcPJp-31">
          <mxGeometry x="0.025" y="-2" relative="1" as="geometry">
            <mxPoint as="offset" />
          </mxGeometry>
        </mxCell>
        <mxCell id="1SMl2eZP3p75lDqBcPJp-25" value="Управление&lt;div&gt;филиалами&lt;/div&gt;" style="ellipse;whiteSpace=wrap;html=1;" vertex="1" parent="1">
          <mxGeometry x="680" y="670" width="140" height="70" as="geometry" />
        </mxCell>
        <mxCell id="1SMl2eZP3p75lDqBcPJp-26" value="Управление учетными&lt;div&gt;записями&lt;/div&gt;" style="ellipse;whiteSpace=wrap;html=1;" vertex="1" parent="1">
          <mxGeometry x="495" y="810" width="140" height="70" as="geometry" />
        </mxCell>
        <mxCell id="1SMl2eZP3p75lDqBcPJp-27" value="Просмотр аналитики" style="ellipse;whiteSpace=wrap;html=1;" vertex="1" parent="1">
          <mxGeometry x="350" y="660" width="140" height="70" as="geometry" />
        </mxCell>
        <mxCell id="1SMl2eZP3p75lDqBcPJp-28" value="Добавление&amp;nbsp;&lt;div&gt;филиала&lt;/div&gt;" style="ellipse;whiteSpace=wrap;html=1;" vertex="1" parent="1">
          <mxGeometry x="890" y="660" width="140" height="70" as="geometry" />
        </mxCell>
        <mxCell id="1SMl2eZP3p75lDqBcPJp-29" value="Удаление филиала" style="ellipse;whiteSpace=wrap;html=1;" vertex="1" parent="1">
          <mxGeometry x="680" y="810" width="140" height="70" as="geometry" />
        </mxCell>
        <mxCell id="1SMl2eZP3p75lDqBcPJp-33" style="edgeStyle=orthogonalEdgeStyle;rounded=0;orthogonalLoop=1;jettySize=auto;html=1;entryX=0.5;entryY=1;entryDx=0;entryDy=0;curved=1;" edge="1" parent="1" source="1SMl2eZP3p75lDqBcPJp-29" target="1SMl2eZP3p75lDqBcPJp-25">
          <mxGeometry relative="1" as="geometry" />
        </mxCell>
        <mxCell id="1SMl2eZP3p75lDqBcPJp-34" value="&amp;lt;&amp;lt;extend&amp;gt;&amp;gt;" style="edgeLabel;html=1;align=center;verticalAlign=middle;resizable=0;points=[];" vertex="1" connectable="0" parent="1SMl2eZP3p75lDqBcPJp-33">
          <mxGeometry x="0.0311" y="-1" relative="1" as="geometry">
            <mxPoint as="offset" />
          </mxGeometry>
        </mxCell>
        <mxCell id="1SMl2eZP3p75lDqBcPJp-57" style="edgeStyle=orthogonalEdgeStyle;rounded=0;orthogonalLoop=1;jettySize=auto;html=1;entryX=1;entryY=0.5;entryDx=0;entryDy=0;curved=1;" edge="1" parent="1" source="1SMl2eZP3p75lDqBcPJp-44" target="1SMl2eZP3p75lDqBcPJp-53">
          <mxGeometry relative="1" as="geometry" />
        </mxCell>
        <mxCell id="1SMl2eZP3p75lDqBcPJp-58" value="&amp;lt;&amp;lt;include&amp;gt;&amp;gt;" style="edgeLabel;html=1;align=center;verticalAlign=middle;resizable=0;points=[];" vertex="1" connectable="0" parent="1SMl2eZP3p75lDqBcPJp-57">
          <mxGeometry x="0.0764" y="2" relative="1" as="geometry">
            <mxPoint as="offset" />
          </mxGeometry>
        </mxCell>
        <mxCell id="1SMl2eZP3p75lDqBcPJp-44" value="Управление&lt;div&gt;каталогом&lt;/div&gt;" style="ellipse;whiteSpace=wrap;html=1;" vertex="1" parent="1">
          <mxGeometry x="315" y="270" width="140" height="70" as="geometry" />
        </mxCell>
        <mxCell id="1SMl2eZP3p75lDqBcPJp-47" value="Учет выданных&amp;nbsp;&lt;div&gt;книг&lt;/div&gt;" style="ellipse;whiteSpace=wrap;html=1;" vertex="1" parent="1">
          <mxGeometry x="70" y="460" width="140" height="70" as="geometry" />
        </mxCell>
        <mxCell id="1SMl2eZP3p75lDqBcPJp-48" value="Учет возвращенных&amp;nbsp;&lt;div&gt;книг&lt;/div&gt;" style="ellipse;whiteSpace=wrap;html=1;" vertex="1" parent="1">
          <mxGeometry x="80" y="570" width="140" height="70" as="geometry" />
        </mxCell>
        <mxCell id="1SMl2eZP3p75lDqBcPJp-49" style="edgeStyle=orthogonalEdgeStyle;rounded=0;orthogonalLoop=1;jettySize=auto;html=1;entryX=1;entryY=0.5;entryDx=0;entryDy=0;curved=1;" edge="1" parent="1" source="1SMl2eZP3p75lDqBcPJp-3" target="1SMl2eZP3p75lDqBcPJp-47">
          <mxGeometry relative="1" as="geometry" />
        </mxCell>
        <mxCell id="1SMl2eZP3p75lDqBcPJp-51" value="Просмотр активных&lt;div&gt;бронирований&lt;/div&gt;" style="ellipse;whiteSpace=wrap;html=1;" vertex="1" parent="1">
          <mxGeometry x="315" y="540" width="140" height="70" as="geometry" />
        </mxCell>
        <mxCell id="1SMl2eZP3p75lDqBcPJp-52" style="edgeStyle=orthogonalEdgeStyle;rounded=0;orthogonalLoop=1;jettySize=auto;html=1;entryX=0.5;entryY=0;entryDx=0;entryDy=0;curved=1;" edge="1" parent="1" source="1SMl2eZP3p75lDqBcPJp-3" target="1SMl2eZP3p75lDqBcPJp-51">
          <mxGeometry relative="1" as="geometry" />
        </mxCell>
        <mxCell id="1SMl2eZP3p75lDqBcPJp-53" value="Добавление книг" style="ellipse;whiteSpace=wrap;html=1;" vertex="1" parent="1">
          <mxGeometry x="80" y="240" width="140" height="70" as="geometry" />
        </mxCell>
        <mxCell id="1SMl2eZP3p75lDqBcPJp-54" value="Удаление книг" style="ellipse;whiteSpace=wrap;html=1;" vertex="1" parent="1">
          <mxGeometry x="80" y="340" width="140" height="70" as="geometry" />
        </mxCell>
        <mxCell id="1SMl2eZP3p75lDqBcPJp-55" style="edgeStyle=orthogonalEdgeStyle;rounded=0;orthogonalLoop=1;jettySize=auto;html=1;entryX=0.048;entryY=0.7;entryDx=0;entryDy=0;entryPerimeter=0;curved=1;" edge="1" parent="1" source="1SMl2eZP3p75lDqBcPJp-54" target="1SMl2eZP3p75lDqBcPJp-44">
          <mxGeometry relative="1" as="geometry" />
        </mxCell>
        <mxCell id="1SMl2eZP3p75lDqBcPJp-56" value="&amp;lt;&amp;lt;extend&amp;gt;&amp;gt;" style="edgeLabel;html=1;align=center;verticalAlign=middle;resizable=0;points=[];" vertex="1" connectable="0" parent="1SMl2eZP3p75lDqBcPJp-55">
          <mxGeometry x="-0.0109" y="-2" relative="1" as="geometry">
            <mxPoint as="offset" />
          </mxGeometry>
        </mxCell>
      </root>
    </mxGraphModel>
  </diagram>
  <diagram id="nniJXww3RrU6F_fbwffE" name="Stated">
    <mxGraphModel dx="1418" dy="785" grid="1" gridSize="10" guides="1" tooltips="1" connect="1" arrows="1" fold="1" page="1" pageScale="1" pageWidth="1100" pageHeight="1100" math="0" shadow="0">
      <root>
        <mxCell id="0" />
        <mxCell id="1" parent="0" />
        <mxCell id="-W3GKxh2eSjCRe2Og-uT-1" value="" style="ellipse;html=1;shape=startState;fillColor=#000000;strokeColor=#ff0000;" vertex="1" parent="1">
          <mxGeometry x="530" y="60" width="30" height="30" as="geometry" />
        </mxCell>
        <mxCell id="-W3GKxh2eSjCRe2Og-uT-2" value="" style="edgeStyle=orthogonalEdgeStyle;html=1;verticalAlign=bottom;endArrow=open;endSize=8;strokeColor=#ff0000;rounded=0;" edge="1" source="-W3GKxh2eSjCRe2Og-uT-1" parent="1">
          <mxGeometry relative="1" as="geometry">
            <mxPoint x="545" y="120" as="targetPoint" />
          </mxGeometry>
        </mxCell>
        <mxCell id="-W3GKxh2eSjCRe2Og-uT-9" style="edgeStyle=orthogonalEdgeStyle;rounded=0;orthogonalLoop=1;jettySize=auto;html=1;" edge="1" parent="1" source="-W3GKxh2eSjCRe2Og-uT-4" target="-W3GKxh2eSjCRe2Og-uT-5">
          <mxGeometry relative="1" as="geometry" />
        </mxCell>
        <mxCell id="-W3GKxh2eSjCRe2Og-uT-13" value="Выбор&lt;div&gt;билета&lt;/div&gt;" style="edgeLabel;html=1;align=center;verticalAlign=middle;resizable=0;points=[];" vertex="1" connectable="0" parent="-W3GKxh2eSjCRe2Og-uT-9">
          <mxGeometry x="-0.4" y="1" relative="1" as="geometry">
            <mxPoint x="-1" y="5" as="offset" />
          </mxGeometry>
        </mxCell>
        <mxCell id="-W3GKxh2eSjCRe2Og-uT-4" value="Ожидание" style="html=1;align=center;verticalAlign=top;rounded=1;absoluteArcSize=1;arcSize=10;dashed=0;whiteSpace=wrap;" vertex="1" parent="1">
          <mxGeometry x="470" y="120" width="140" height="40" as="geometry" />
        </mxCell>
        <mxCell id="-W3GKxh2eSjCRe2Og-uT-10" style="edgeStyle=orthogonalEdgeStyle;rounded=0;orthogonalLoop=1;jettySize=auto;html=1;entryX=0.5;entryY=0;entryDx=0;entryDy=0;" edge="1" parent="1" source="-W3GKxh2eSjCRe2Og-uT-5" target="-W3GKxh2eSjCRe2Og-uT-6">
          <mxGeometry relative="1" as="geometry" />
        </mxCell>
        <mxCell id="-W3GKxh2eSjCRe2Og-uT-14" value="Внесение необходимой&lt;div&gt;суммы&lt;/div&gt;" style="edgeLabel;html=1;align=center;verticalAlign=middle;resizable=0;points=[];" vertex="1" connectable="0" parent="-W3GKxh2eSjCRe2Og-uT-10">
          <mxGeometry x="-0.28" y="2" relative="1" as="geometry">
            <mxPoint x="-2" y="2" as="offset" />
          </mxGeometry>
        </mxCell>
        <mxCell id="-W3GKxh2eSjCRe2Og-uT-15" style="edgeStyle=orthogonalEdgeStyle;rounded=0;orthogonalLoop=1;jettySize=auto;html=1;entryX=0;entryY=0.5;entryDx=0;entryDy=0;" edge="1" parent="1" source="-W3GKxh2eSjCRe2Og-uT-5" target="-W3GKxh2eSjCRe2Og-uT-8">
          <mxGeometry relative="1" as="geometry" />
        </mxCell>
        <mxCell id="-W3GKxh2eSjCRe2Og-uT-16" value="Недостаточно&lt;div&gt;средств&lt;/div&gt;" style="edgeLabel;html=1;align=center;verticalAlign=middle;resizable=0;points=[];" vertex="1" connectable="0" parent="-W3GKxh2eSjCRe2Og-uT-15">
          <mxGeometry x="-0.16" y="-3" relative="1" as="geometry">
            <mxPoint y="-3" as="offset" />
          </mxGeometry>
        </mxCell>
        <mxCell id="-W3GKxh2eSjCRe2Og-uT-5" value="Ожидание внесения денег" style="html=1;align=center;verticalAlign=top;rounded=1;absoluteArcSize=1;arcSize=10;dashed=0;whiteSpace=wrap;" vertex="1" parent="1">
          <mxGeometry x="470" y="210" width="140" height="40" as="geometry" />
        </mxCell>
        <mxCell id="-W3GKxh2eSjCRe2Og-uT-11" style="edgeStyle=orthogonalEdgeStyle;rounded=0;orthogonalLoop=1;jettySize=auto;html=1;entryX=0.5;entryY=0;entryDx=0;entryDy=0;" edge="1" parent="1" source="-W3GKxh2eSjCRe2Og-uT-6" target="-W3GKxh2eSjCRe2Og-uT-7">
          <mxGeometry relative="1" as="geometry" />
        </mxCell>
        <mxCell id="-W3GKxh2eSjCRe2Og-uT-19" value="Выдача&lt;div&gt;билета&lt;/div&gt;" style="edgeLabel;html=1;align=center;verticalAlign=middle;resizable=0;points=[];" vertex="1" connectable="0" parent="-W3GKxh2eSjCRe2Og-uT-11">
          <mxGeometry x="-0.32" y="-2" relative="1" as="geometry">
            <mxPoint x="2" y="3" as="offset" />
          </mxGeometry>
        </mxCell>
        <mxCell id="-W3GKxh2eSjCRe2Og-uT-20" style="edgeStyle=orthogonalEdgeStyle;rounded=0;orthogonalLoop=1;jettySize=auto;html=1;entryX=0;entryY=0.5;entryDx=0;entryDy=0;exitX=0;exitY=0.5;exitDx=0;exitDy=0;" edge="1" parent="1" source="-W3GKxh2eSjCRe2Og-uT-6" target="-W3GKxh2eSjCRe2Og-uT-4">
          <mxGeometry relative="1" as="geometry">
            <Array as="points">
              <mxPoint x="400" y="320" />
              <mxPoint x="400" y="140" />
            </Array>
          </mxGeometry>
        </mxCell>
        <mxCell id="-W3GKxh2eSjCRe2Og-uT-21" value="Возврат в начальное&lt;div&gt;состояние&lt;/div&gt;" style="edgeLabel;html=1;align=center;verticalAlign=middle;resizable=0;points=[];" vertex="1" connectable="0" parent="-W3GKxh2eSjCRe2Og-uT-20">
          <mxGeometry x="0.0188" y="1" relative="1" as="geometry">
            <mxPoint as="offset" />
          </mxGeometry>
        </mxCell>
        <mxCell id="-W3GKxh2eSjCRe2Og-uT-6" value="Деньги&amp;nbsp;&lt;div&gt;получены&lt;/div&gt;" style="html=1;align=center;verticalAlign=top;rounded=1;absoluteArcSize=1;arcSize=10;dashed=0;whiteSpace=wrap;" vertex="1" parent="1">
          <mxGeometry x="470" y="300" width="140" height="40" as="geometry" />
        </mxCell>
        <mxCell id="-W3GKxh2eSjCRe2Og-uT-23" style="edgeStyle=orthogonalEdgeStyle;rounded=0;orthogonalLoop=1;jettySize=auto;html=1;entryX=0.5;entryY=0;entryDx=0;entryDy=0;" edge="1" parent="1" source="-W3GKxh2eSjCRe2Og-uT-7" target="-W3GKxh2eSjCRe2Og-uT-22">
          <mxGeometry relative="1" as="geometry" />
        </mxCell>
        <mxCell id="-W3GKxh2eSjCRe2Og-uT-7" value="Билет&amp;nbsp;&lt;div&gt;выдан&lt;/div&gt;" style="html=1;align=center;verticalAlign=top;rounded=1;absoluteArcSize=1;arcSize=10;dashed=0;whiteSpace=wrap;" vertex="1" parent="1">
          <mxGeometry x="470" y="390" width="140" height="40" as="geometry" />
        </mxCell>
        <mxCell id="-W3GKxh2eSjCRe2Og-uT-17" style="edgeStyle=orthogonalEdgeStyle;rounded=0;orthogonalLoop=1;jettySize=auto;html=1;entryX=1;entryY=0.5;entryDx=0;entryDy=0;exitX=1;exitY=0.5;exitDx=0;exitDy=0;" edge="1" parent="1" source="-W3GKxh2eSjCRe2Og-uT-8" target="-W3GKxh2eSjCRe2Og-uT-4">
          <mxGeometry relative="1" as="geometry" />
        </mxCell>
        <mxCell id="-W3GKxh2eSjCRe2Og-uT-18" value="Возврат в начальное&amp;nbsp;&lt;div&gt;состояние&lt;/div&gt;" style="edgeLabel;html=1;align=center;verticalAlign=middle;resizable=0;points=[];" vertex="1" connectable="0" parent="-W3GKxh2eSjCRe2Og-uT-17">
          <mxGeometry x="-0.6973" y="-4" relative="1" as="geometry">
            <mxPoint y="-14" as="offset" />
          </mxGeometry>
        </mxCell>
        <mxCell id="-W3GKxh2eSjCRe2Og-uT-8" value="Транзакция&amp;nbsp;&lt;div&gt;отменена&lt;/div&gt;" style="html=1;align=center;verticalAlign=top;rounded=1;absoluteArcSize=1;arcSize=10;dashed=0;whiteSpace=wrap;" vertex="1" parent="1">
          <mxGeometry x="710" y="210" width="140" height="40" as="geometry" />
        </mxCell>
        <mxCell id="-W3GKxh2eSjCRe2Og-uT-22" value="" style="ellipse;html=1;shape=endState;fillColor=#000000;strokeColor=#ff0000;" vertex="1" parent="1">
          <mxGeometry x="525" y="460" width="30" height="30" as="geometry" />
        </mxCell>
      </root>
    </mxGraphModel>
  </diagram>
</mxfile>
